<mxfile host="app.diagrams.net" modified="2021-12-24T10:35:03.511Z" agent="5.0 (Macintosh; Intel Mac OS X 10_15_7) AppleWebKit/537.36 (KHTML, like Gecko) Chrome/96.0.4664.93 Safari/537.36" etag="Hy8HznkggkV63e6soTFs" version="16.0.3" type="github">
  <diagram id="C5RBs43oDa-KdzZeNtuy" name="Page-1">
    <mxGraphModel dx="614" dy="406" grid="1" gridSize="10" guides="1" tooltips="1" connect="1" arrows="1" fold="1" page="1" pageScale="1" pageWidth="827" pageHeight="1169" math="0" shadow="0">
      <root>
        <mxCell id="WIyWlLk6GJQsqaUBKTNV-0" />
        <mxCell id="WIyWlLk6GJQsqaUBKTNV-1" parent="WIyWlLk6GJQsqaUBKTNV-0" />
        <mxCell id="laYvkZ8M8flP_ZJMWY22-6" value="" style="edgeStyle=orthogonalEdgeStyle;rounded=0;orthogonalLoop=1;jettySize=auto;html=1;" edge="1" parent="WIyWlLk6GJQsqaUBKTNV-1" source="WIyWlLk6GJQsqaUBKTNV-3" target="laYvkZ8M8flP_ZJMWY22-1">
          <mxGeometry relative="1" as="geometry" />
        </mxCell>
        <mxCell id="WIyWlLk6GJQsqaUBKTNV-3" value="getS3Data 모듈" style="rounded=1;whiteSpace=wrap;html=1;fontSize=12;glass=0;strokeWidth=1;shadow=0;" parent="WIyWlLk6GJQsqaUBKTNV-1" vertex="1">
          <mxGeometry x="260" y="90" width="130" height="50" as="geometry" />
        </mxCell>
        <mxCell id="laYvkZ8M8flP_ZJMWY22-1" value="&lt;font style=&quot;font-size: 11px&quot;&gt;메인팝업 콜백함수&lt;br&gt;getOngoingEvent &lt;br&gt;모듈&lt;/font&gt;" style="rounded=1;whiteSpace=wrap;html=1;" vertex="1" parent="WIyWlLk6GJQsqaUBKTNV-1">
          <mxGeometry x="90" y="200" width="120" height="60" as="geometry" />
        </mxCell>
        <mxCell id="laYvkZ8M8flP_ZJMWY22-2" value="&lt;font style=&quot;font-size: 11px&quot;&gt;상세 페이지 콜백함수&lt;br&gt;getCurrentPageEvent&lt;br&gt;모듈&lt;/font&gt;" style="rounded=1;whiteSpace=wrap;html=1;" vertex="1" parent="WIyWlLk6GJQsqaUBKTNV-1">
          <mxGeometry x="265" y="200" width="120" height="60" as="geometry" />
        </mxCell>
        <mxCell id="laYvkZ8M8flP_ZJMWY22-3" value="&lt;font style=&quot;font-size: 11px&quot;&gt;이벤트 목록 콜백함수&lt;br&gt;getOngoingEventList&lt;br&gt;모듈&lt;/font&gt;" style="rounded=1;whiteSpace=wrap;html=1;" vertex="1" parent="WIyWlLk6GJQsqaUBKTNV-1">
          <mxGeometry x="440" y="200" width="120" height="60" as="geometry" />
        </mxCell>
        <mxCell id="laYvkZ8M8flP_ZJMWY22-7" value="" style="edgeStyle=orthogonalEdgeStyle;rounded=0;orthogonalLoop=1;jettySize=auto;html=1;exitX=0.5;exitY=1;exitDx=0;exitDy=0;entryX=0.5;entryY=0;entryDx=0;entryDy=0;" edge="1" parent="WIyWlLk6GJQsqaUBKTNV-1" source="WIyWlLk6GJQsqaUBKTNV-3" target="laYvkZ8M8flP_ZJMWY22-2">
          <mxGeometry relative="1" as="geometry">
            <mxPoint x="270" y="124.9655172413793" as="sourcePoint" />
            <mxPoint x="150" y="210" as="targetPoint" />
          </mxGeometry>
        </mxCell>
        <mxCell id="laYvkZ8M8flP_ZJMWY22-8" value="" style="edgeStyle=orthogonalEdgeStyle;rounded=0;orthogonalLoop=1;jettySize=auto;html=1;exitX=1;exitY=0.5;exitDx=0;exitDy=0;entryX=0.5;entryY=0;entryDx=0;entryDy=0;" edge="1" parent="WIyWlLk6GJQsqaUBKTNV-1" source="WIyWlLk6GJQsqaUBKTNV-3" target="laYvkZ8M8flP_ZJMWY22-3">
          <mxGeometry relative="1" as="geometry">
            <mxPoint x="335" y="150" as="sourcePoint" />
            <mxPoint x="335" y="210" as="targetPoint" />
          </mxGeometry>
        </mxCell>
        <mxCell id="laYvkZ8M8flP_ZJMWY22-11" value="index.tsx" style="rounded=0;whiteSpace=wrap;html=1;" vertex="1" parent="WIyWlLk6GJQsqaUBKTNV-1">
          <mxGeometry x="90" y="390" width="120" height="60" as="geometry" />
        </mxCell>
        <mxCell id="laYvkZ8M8flP_ZJMWY22-13" value="" style="edgeStyle=orthogonalEdgeStyle;rounded=0;orthogonalLoop=1;jettySize=auto;html=1;entryX=0.5;entryY=0;entryDx=0;entryDy=0;" edge="1" parent="WIyWlLk6GJQsqaUBKTNV-1" target="laYvkZ8M8flP_ZJMWY22-14">
          <mxGeometry relative="1" as="geometry">
            <mxPoint x="325" y="260" as="sourcePoint" />
            <mxPoint x="325" y="460" as="targetPoint" />
          </mxGeometry>
        </mxCell>
        <mxCell id="laYvkZ8M8flP_ZJMWY22-19" value="dynamic import로&lt;br&gt;모듈 적용" style="edgeLabel;html=1;align=center;verticalAlign=middle;resizable=0;points=[];" vertex="1" connectable="0" parent="laYvkZ8M8flP_ZJMWY22-13">
          <mxGeometry x="-0.2904" y="-1" relative="1" as="geometry">
            <mxPoint x="1" y="14" as="offset" />
          </mxGeometry>
        </mxCell>
        <mxCell id="laYvkZ8M8flP_ZJMWY22-14" value="[detail].tsx" style="rounded=0;whiteSpace=wrap;html=1;" vertex="1" parent="WIyWlLk6GJQsqaUBKTNV-1">
          <mxGeometry x="265" y="390" width="120" height="60" as="geometry" />
        </mxCell>
        <mxCell id="laYvkZ8M8flP_ZJMWY22-15" value="" style="edgeStyle=orthogonalEdgeStyle;rounded=0;orthogonalLoop=1;jettySize=auto;html=1;" edge="1" parent="WIyWlLk6GJQsqaUBKTNV-1" target="laYvkZ8M8flP_ZJMWY22-16">
          <mxGeometry relative="1" as="geometry">
            <mxPoint x="500" y="260" as="sourcePoint" />
            <mxPoint x="500" y="350" as="targetPoint" />
          </mxGeometry>
        </mxCell>
        <mxCell id="laYvkZ8M8flP_ZJMWY22-20" value="dynamic import로&lt;br&gt;모듈 적용" style="edgeLabel;html=1;align=center;verticalAlign=middle;resizable=0;points=[];" vertex="1" connectable="0" parent="laYvkZ8M8flP_ZJMWY22-15">
          <mxGeometry x="-0.1525" relative="1" as="geometry">
            <mxPoint y="5" as="offset" />
          </mxGeometry>
        </mxCell>
        <mxCell id="laYvkZ8M8flP_ZJMWY22-16" value="event-main.tsx" style="rounded=0;whiteSpace=wrap;html=1;" vertex="1" parent="WIyWlLk6GJQsqaUBKTNV-1">
          <mxGeometry x="440" y="390" width="120" height="60" as="geometry" />
        </mxCell>
        <mxCell id="laYvkZ8M8flP_ZJMWY22-21" value="" style="edgeStyle=orthogonalEdgeStyle;rounded=0;orthogonalLoop=1;jettySize=auto;html=1;entryX=0.5;entryY=0;entryDx=0;entryDy=0;exitX=0.5;exitY=1;exitDx=0;exitDy=0;" edge="1" parent="WIyWlLk6GJQsqaUBKTNV-1" source="laYvkZ8M8flP_ZJMWY22-1" target="laYvkZ8M8flP_ZJMWY22-11">
          <mxGeometry relative="1" as="geometry">
            <mxPoint x="335" y="270" as="sourcePoint" />
            <mxPoint x="335.3599999999999" y="466.0400000000001" as="targetPoint" />
          </mxGeometry>
        </mxCell>
        <mxCell id="laYvkZ8M8flP_ZJMWY22-22" value="dynamic import로&lt;br&gt;모듈 적용" style="edgeLabel;html=1;align=center;verticalAlign=middle;resizable=0;points=[];" vertex="1" connectable="0" parent="laYvkZ8M8flP_ZJMWY22-21">
          <mxGeometry x="-0.2904" y="-1" relative="1" as="geometry">
            <mxPoint x="1" y="14" as="offset" />
          </mxGeometry>
        </mxCell>
      </root>
    </mxGraphModel>
  </diagram>
</mxfile>
